<svg xmlns="http://www.w3.org/2000/svg" width="424" height="118" fill="none"><path fill="#fff" d="M102.797 44.379V86.42H89.521V44.38H75.138V31.1h42.043V44.38h-14.384ZM168.851 31.118v31.905c0 14.804-13.019 23.399-23.739 23.399-9.869 0-23.567-7.914-23.567-23.568V31.118h12.336v31.736c0 3.402 1.192 6.125 3.659 8.168 2.468 2.125 5.616 3.062 7.572 3.062 1.192 0 2.553-.34 3.829-.766 1.447-.595 2.892-1.36 3.999-2.383 1.105-1.02 2.041-2.125 2.637-3.401.682-1.363.936-2.81.936-4.511V31.118h12.338ZM221.889 58.771c0 15.234-12.425 27.658-27.659 27.658h-21.018V31.114h21.018c15.234 0 27.659 12.34 27.659 27.657Zm-12.765 0c0-4-1.532-7.744-4.34-10.637-2.808-2.808-6.638-4.34-10.638-4.34h-7.658v29.87h7.742c4.002 0 7.746-1.531 10.554-4.34 2.808-2.807 4.34-6.553 4.34-10.553ZM239.548 86.412h-13.272V31.107h13.272v55.305ZM299.213 58.77c0 15.27-12.381 27.65-27.65 27.65-15.27 0-27.652-12.38-27.652-27.65 0-15.27 12.382-27.65 27.652-27.65 15.269 0 27.65 12.38 27.65 27.65Zm-11.554 0c0-4.292-1.651-8.336-4.706-11.39-3.053-3.054-7.098-4.705-11.39-4.705-4.292 0-8.338 1.651-11.391 4.704-3.053 3.055-4.705 7.099-4.705 11.391s1.652 8.337 4.705 11.39c3.053 2.971 7.099 4.705 11.391 4.705s8.337-1.734 11.39-4.704c3.055-3.054 4.706-7.099 4.706-11.391ZM344.587 75.314h15.159v11.111h-36.348l24.761-35.553c.476-.794.715-1.747.715-2.779a5.86 5.86 0 0 0-5.872-5.872 5.86 5.86 0 0 0-5.874 5.872h-11.112c0-2.301.398-4.523 1.271-6.585a17.071 17.071 0 0 1 3.651-5.398c1.588-1.586 3.412-2.777 5.398-3.65 2.142-.872 4.363-1.35 6.666-1.35 2.3 0 4.522.478 6.586 1.35 2.063.873 3.89 2.064 5.398 3.65 1.585 1.508 2.776 3.334 3.649 5.398a16.864 16.864 0 0 1 1.349 6.585c0 2.303-.477 4.525-1.349 6.667-.476 1.19-1.112 2.302-1.825 3.333l-12.223 17.221ZM387.379 31.124v55.298h-11.107v-44.19h-11.901V31.124h23.008ZM54.847 31.157S36.44 29.533 36.44 46.858c0 19.898 25.718 14.89 25.718 23.282 0 4.197-6.498 3.52-6.498 3.52v12.722s19.492 1.625 19.492-16.243c0-17.866-26.124-15.43-26.124-22.063 0-4.331 5.82-3.654 5.82-3.654V31.157Z"/><path fill="#fff" d="M12.147 12.147h399.441v93.266H12.147V12.147ZM411.587 0H0v117.545h423.733V0h-12.146Z"/></svg>