<svg xmlns="http://www.w3.org/2000/svg" width="1220" height="183" fill="none"><path fill="#CCC" d="M79.773 111.057H40.788c-7.65 0-9.308-4.584-9.308-7.012l.048-4.124c0-4.172 2.437-7.762 9.138-7.762h39.107v18.898Zm11.502-61.372H4.972v15.768h65.59c5.07 0 9.211 1.867 9.211 7.64v2.935H17.276a16.383 16.383 0 0 0-6.56.945 16.29 16.29 0 0 0-5.637 3.468 16.222 16.222 0 0 0-3.782 5.42A16.14 16.14 0 0 0 0 92.33v18.922c.024 2.23.49 4.435 1.375 6.487a16.988 16.988 0 0 0 3.767 5.472 17.03 17.03 0 0 0 5.581 3.614c2.083.83 4.31 1.242 6.552 1.211H111.3l.049-62.415c0-11.206-9.452-15.936-20.075-15.936ZM351.759 100.93s.146-4.075.146-9.144v-41.92h-32.821v78.184h32.821l47.22-51.62s-.219 7.859-.219 11.958v39.662h32.75V49.867h-32.75l-47.147 51.063ZM590.371 111.046h-38.305V49.869h-32.818v61.177h-38.305V49.869h-32.964v78.18h175.118v-78.18h-32.726v61.177ZM272.524 103.123c0 5.773-4.117 8.369-9.187 8.369h-31.479V65.4h31.504c5.069 0 9.186 2.575 9.186 8.37l-.024 29.353Zm-104.944 8.369c-5.066 0-9.184-2.596-9.184-8.369V73.675c0-5.798 4.118-8.37 9.184-8.37h31.506l.025 46.187H167.58Zm116.47-62.004h-52.192V6.433h-32.796v43.056H146.87c-10.623 0-20.102 4.853-20.102 15.961v45.872c0 11.209 9.479 16.983 20.102 16.983h52.192v43.056h32.796v-42.962h52.192c10.623 0 20.099-5.868 20.099-16.979v-45.97c0-11.206-9.476-15.96-20.099-15.96ZM714.74 111.057h-38.985c-7.674 0-9.306-4.584-9.306-7.012l.046-4.124c0-4.172 2.437-7.762 9.138-7.762h39.107v18.898Zm11.501-61.372h-86.324v15.768h65.591c5.069 0 9.186 1.867 9.186 7.64v2.934h-62.452a16.383 16.383 0 0 0-6.557.946 16.37 16.37 0 0 0-5.64 3.468 16.188 16.188 0 0 0-5.078 11.889v18.922a16.915 16.915 0 0 0 1.376 6.487 16.994 16.994 0 0 0 9.351 9.086 17.06 17.06 0 0 0 6.548 1.211h94.032l.046-62.415c0-11.206-9.48-15.936-20.079-15.936Z"/><path fill="#EB595B" d="M1220 41.916h-20.37l-14.43 50.941-32.84 27.581h-10.5v-15.841l20.34-62.754h-21.13l-16.39 50.941-31.53 27.459h-10.5v-15.646l32.04-101.882h-19.95l-28.51 90.191-32.12 27.362h-10.5v-13.076l21-65.373h-21l-16.43 50.94-32.157 27.46h-10.498v-13.076l21.783-65.373h-55.337L895.79 71.849l-12.185 32.675v31.39h33.55l27.584-23.555v23.555h31.528l27.563-23.555v23.555h31.52l27.56-23.555v23.555h31.53l27.58-23.555v23.555h31.48l28.25-23.555-8.51 32.748-19.69 16.982-59.08 2.596V183l63.69-2.62 33.47-28.771L1220 41.916Zm-304.013 78.449h-12.478V107.29l9.748-27.46 26.27-22.218h20.999l-12.472 35.294-32.067 27.459ZM1035.38 2.715l-7.31 23.53h21.68l7.31-23.53h-21.68ZM869.91 71.898v-45.75L818.744 0h-46l-48.59 7.835v18.313l49.904-7.86h35.45l39.425 19.627v32.018l-16.422 45.095-40.058 33.961-44.64 7.278 41.422-122.235h-21.78l-41.422 122.891H700.52v18.29h48.513l53.848-9.147 46.613-37.914 20.416-56.254Z"/></svg>