<svg xmlns="http://www.w3.org/2000/svg" width="395" height="77" fill="none"><path fill="#315EFB" d="M20.5 5c4.4 0 8.2.8 11.4 2.3 3.3 1.5 5.8 3.7 7.6 6.5 1.8 2.8 2.7 6 2.7 9.7 0 3.7-.9 6.9-2.6 9.7-1.8 2.8-4.3 5-7.6 6.5-3.3 1.6-7.1 2.3-11.5 2.3h-6.4v18.2H.3V5h20.2Zm-.6 25.2c2.6 0 4.7-.6 6.1-1.9 1.4-1.3 2.2-2.9 2.2-4.9 0-1.9-.7-3.6-2.2-4.8-1.4-1.3-3.5-1.9-6.1-1.9h-5.8v13.5h5.8Zm59.1-11h11.6v41H79v-4.7c-3.1 3.8-7.5 5.7-13.4 5.7-3.4 0-6.6-.9-9.7-2.6-3.1-1.8-5.6-4.3-7.6-7.6-1.9-3.3-2.9-7.1-2.9-11.3 0-4.3 1-8 2.9-11.3 1.9-3.3 4.5-5.8 7.6-7.6 3.1-1.8 6.3-2.6 9.7-2.6 5.8 0 10.3 1.9 13.4 5.7v-4.7Zm-3.7 27.5c1.9-1.9 2.8-4.2 2.8-7.1 0-2.9-.9-5.2-2.8-7.1-1.9-1.9-4.2-2.8-7.1-2.8-2.8 0-5.2.9-7.1 2.8-1.9 1.9-2.8 4.2-2.8 7.1 0 2.9.9 5.2 2.8 7.1 1.9 1.9 4.2 2.8 7.1 2.8 2.9 0 5.2-.9 7.1-2.8Zm71.4-27.5 8.4 41h-12.7l-4.3-23-9 23h-6.5l-8.8-23-4.4 23H96.9l8.4-41h11.6l9.1 23.4 9.2-23.4h11.5Zm47.6 2.4c3 1.7 5.5 4.2 7.2 7.3 1.8 3.1 2.6 6.7 2.6 10.8 0 4.3-1 8-3 11.3-2 3.3-4.7 5.8-8.1 7.6-3.4 1.8-7.3 2.7-11.5 2.7-4.8 0-9.1-1.1-12.7-3.2-3.6-2.1-6.4-5.2-8.4-9.2-2-4-3-8.9-3-14.4 0-9.9 1.5-17.1 4.5-21.6s7.3-7.5 12.7-8.9c3.3-.8 9.5-1.8 18.6-2.9l7.1-.9v11.6c-3.6.5-6.7.8-9.3 1.1-7 .8-11.6 1.4-13.6 2-2.8.8-4.9 2.1-6.1 4-1.2 1.9-2 4.3-2.2 7.4 1.9-2.4 4.1-4.2 6.4-5.3 2.3-1.1 5.1-1.7 8.3-1.7 4.1-.3 7.5.6 10.5 2.3Zm-7.9 26.8c1.5-.9 2.7-2.1 3.6-3.6.9-1.5 1.3-3.1 1.3-4.9 0-1.7-.4-3.4-1.3-4.9-.9-1.5-2.1-2.7-3.6-3.7-1.5-.9-3.1-1.4-4.9-1.4-1.8 0-3.4.5-4.9 1.4-1.5.9-2.7 2.1-3.6 3.7-.9 1.5-1.3 3.2-1.3 4.9 0 1.7.4 3.4 1.3 4.9.9 1.5 2.1 2.7 3.6 3.6 1.5.9 3.1 1.4 4.9 1.4 1.8 0 3.4-.5 4.9-1.4ZM234 19.2l15.3 41h-13.5l-8.6-24.5-8.6 24.5h-13.5l15.7-41H234Zm49.1 1.6c3.3 1.8 6 4.3 8 7.5s3 6.9 3 10.9c0 1.4-.1 2.7-.3 3.9h-30.5c.5 2.6 1.5 4.6 3.1 6 1.6 1.4 3.6 2.1 6 2.1 3.5 0 6.1-1.2 7.8-3.7h12.6c-1.6 4.1-4.1 7.3-7.7 9.8-3.5 2.5-7.8 3.7-12.9 3.7-3.9 0-7.6-.9-11-2.7-3.4-1.8-6.1-4.3-8.1-7.6s-3-7-3-11.3c0-4.3 1-8 3-11.3 2-3.3 4.7-5.8 8.1-7.6 3.4-1.8 7-2.7 11-2.7 3.9.3 7.5 1.2 10.9 3Zm-16.4 9.1c-1.5 1.2-2.6 2.9-3.2 5.2h17.7c-.5-2.1-1.5-3.7-3-5-1.5-1.3-3.5-1.9-6-1.9-2.1-.1-4 .5-5.5 1.7Zm68.6-9.1c3.1 1.8 5.6 4.3 7.6 7.6 1.9 3.3 2.9 7 2.9 11.3 0 4.3-1 8-2.9 11.3-1.9 3.3-4.5 5.8-7.6 7.6-3.1 1.8-6.3 2.6-9.7 2.6-5 0-9-1.4-11.9-4.2v18.9h-13.2V19.2h11.6v4.7c3.2-3.8 7.7-5.8 13.5-5.8 3.3 0 6.6.9 9.7 2.7Zm-5.4 25.9c1.9-1.9 2.8-4.2 2.8-7.1 0-2.9-.9-5.2-2.8-7.1-1.9-1.9-4.2-2.8-7.1-2.8-2.8 0-5.2.9-7.1 2.8-1.9 1.9-2.8 4.2-2.8 7.1 0 2.9.9 5.2 2.8 7.1 1.8 1.9 4.2 2.8 7.1 2.8 2.9 0 5.3-.9 7.1-2.8Zm32.7 29.8h-13.3L381.7 0H395l-32.4 76.5Z"/></svg>