<svg xmlns="http://www.w3.org/2000/svg" width="196" height="32" fill="none"><path fill="#21CF8C" d="M26.1 1.186h8.806l-6.221 29.297H22.98l4.194-19.816c.132-.57.311-1.365.537-2.385.238-1.034.41-1.829.516-2.385L17.474 30.483h-5.942l-.299-24.586a185.42 185.42 0 0 1-.477 2.385 71.917 71.917 0 0 1-.497 2.385L6.066 30.483H.36L6.582 1.186h8.905l.417 23.036L26.101 1.186ZM58.358 15.795c.69-3.286.51-5.824-.536-7.613-1.034-1.802-2.763-2.703-5.188-2.703s-4.551.895-6.38 2.684c-1.815 1.788-3.074 4.333-3.776 7.632-.703 3.3-.524 5.844.536 7.632 1.06 1.79 2.803 2.683 5.227 2.683 2.425 0 4.539-.894 6.341-2.683 1.815-1.788 3.074-4.333 3.776-7.632Zm-.894 12.085c-2.69 2.279-6.128 3.418-10.316 3.418-4.187 0-7.148-1.14-8.884-3.418-2.372-2.796-2.995-6.825-1.869-12.085 1.14-5.367 3.479-9.395 7.017-12.085C46.102 1.431 49.54.292 53.727.292c4.188 0 7.149 1.14 8.885 3.418 2.385 2.69 3.008 6.718 1.868 12.085-1.126 5.26-3.465 9.289-7.016 12.085ZM72.391 21.44c-.093 1.338.06 2.338.457 3.001.742 1.206 2.32 1.809 4.73 1.809 1.445 0 2.65-.16 3.618-.477 1.842-.61 2.935-1.743 3.28-3.4.212-.966-.053-1.715-.795-2.245-.73-.517-1.962-.974-3.697-1.372l-2.962-.695c-2.902-.69-4.85-1.438-5.843-2.246-1.683-1.352-2.22-3.465-1.61-6.34.556-2.624 1.974-4.804 4.253-6.54C76.102 1.2 79.09.332 82.786.332c3.088 0 5.546.821 7.374 2.464 1.829 1.63 2.465 4.002 1.908 7.116h-5.883c.278-1.763-.219-3.015-1.49-3.757-.849-.49-1.982-.735-3.4-.735-1.576 0-2.908.318-3.995.954-1.073.636-1.729 1.524-1.967 2.663-.226 1.047.073 1.829.894 2.345.517.345 1.703.75 3.558 1.213l4.79 1.212c2.094.53 3.61 1.24 4.552 2.127 1.457 1.378 1.908 3.372 1.351 5.983-.57 2.676-2.067 4.902-4.492 6.678-2.425 1.762-5.505 2.643-9.242 2.643-3.816 0-6.632-.867-8.447-2.603-1.816-1.75-2.399-4.148-1.75-7.195h5.844ZM99.323 1.186h6.42l7.314 20.453 4.353-20.453h5.704l-6.221 29.297h-6.122l-7.553-20.81-4.412 20.81h-5.704l6.22-29.297ZM146.608 15.795c.69-3.286.511-5.824-.536-7.613-1.034-1.802-2.763-2.703-5.188-2.703s-4.551.895-6.38 2.684c-1.815 1.788-3.074 4.333-3.776 7.632-.703 3.3-.524 5.844.536 7.632 1.06 1.79 2.803 2.683 5.228 2.683 2.424 0 4.538-.894 6.34-2.683 1.815-1.788 3.074-4.333 3.776-7.632Zm-.894 12.085c-2.69 2.279-6.128 3.418-10.316 3.418-4.187 0-7.148-1.14-8.884-3.418-2.372-2.796-2.995-6.825-1.868-12.085 1.139-5.367 3.478-9.395 7.016-12.085 2.69-2.279 6.128-3.418 10.315-3.418 4.188 0 7.149 1.14 8.885 3.418 2.385 2.69 3.008 6.718 1.868 12.085-1.126 5.26-3.465 9.289-7.016 12.085ZM164.516 1.186l.298 16.776-.159 4.67 1.828-4.571 6.897-16.875h6.46l-.099 16.776-.1 4.67 1.849-4.492 7.533-16.954h6.221l-14.47 29.297h-5.843l.099-17.133.159-5.664-2.226 5.664-7.175 17.133h-5.685l-2.087-29.297h6.5Z"/><path fill="#21CF8C" fill-rule="evenodd" d="M25.91.894h9.355L28.92 30.775h-6.301l4.269-20.171V10.6c.111-.475.254-1.107.43-1.898l-9.654 22.072h-6.422l-.268-22.093c-.169.857-.313 1.54-.43 2.048L6.3 30.775H0L6.345.895h9.427l.399 22.001L25.91.894ZM15.903 24.222l-.417-23.036H6.58L.361 30.483h5.704l4.193-19.816c.133-.57.299-1.365.497-2.385l.202-.992c.115-.566.206-1.03.275-1.393l.299 24.586h5.942L28.226 5.897c-.07.364-.167.83-.293 1.398-.066.3-.141.63-.224.987a233.97 233.97 0 0 1-.536 2.385l-4.194 19.816h5.704l6.222-29.297H26.1L15.903 24.222ZM57.57 8.33v-.001c-.973-1.695-2.594-2.557-4.935-2.557-2.344 0-4.398.861-6.176 2.6-1.763 1.737-3.001 4.224-3.695 7.485-.696 3.27-.503 5.726.502 7.423.998 1.684 2.634 2.54 4.976 2.54 2.344 0 4.385-.861 6.135-2.599 1.764-1.738 3.003-4.224 3.697-7.486.682-3.256.49-5.707-.503-7.404l-.001-.001Zm.79 7.466c-.703 3.3-1.962 5.844-3.777 7.632-1.802 1.79-3.916 2.683-6.34 2.683-2.425 0-4.168-.894-5.228-2.683-1.06-1.788-1.239-4.333-.537-7.632.703-3.3 1.962-5.844 3.777-7.632 1.829-1.79 3.955-2.684 6.38-2.684s4.154.901 5.188 2.703c1.046 1.79 1.225 4.327.536 7.613Zm6.406.06c-1.137 5.312-3.505 9.405-7.117 12.25-2.751 2.33-6.26 3.485-10.5 3.485-4.23 0-7.298-1.151-9.112-3.527-2.45-2.893-3.061-7.026-1.926-12.329 1.15-5.415 3.516-9.51 7.119-12.251C45.979 1.154 49.487 0 53.727 0c4.23 0 7.296 1.15 9.11 3.525 2.468 2.79 3.076 6.928 1.928 12.33ZM62.612 3.71C60.876 1.431 57.914.292 53.727.292c-4.187 0-7.625 1.14-10.315 3.418-3.538 2.69-5.877 6.718-7.017 12.085-1.126 5.26-.503 9.289 1.869 12.085 1.736 2.279 4.697 3.418 8.884 3.418 4.188 0 7.626-1.14 10.316-3.418 3.551-2.796 5.89-6.825 7.016-12.085 1.14-5.367.517-9.395-1.868-12.085Zm10.091 17.438-.021.312c-.092 1.316.064 2.244.415 2.83.66 1.07 2.1 1.668 4.481 1.668 1.425 0 2.598-.157 3.526-.462 1.76-.583 2.766-1.644 3.085-3.181v-.002l.001-.002c.097-.443.08-.815-.03-1.127-.11-.31-.32-.583-.65-.818-.68-.482-1.864-.93-3.592-1.325h-.002l-2.961-.696c-2.902-.69-4.91-1.449-5.96-2.303-1.8-1.445-2.335-3.69-1.712-6.628.572-2.697 2.031-4.936 4.362-6.71C75.988.918 79.043.04 82.785.04c3.14 0 5.674.836 7.57 2.539 1.925 1.717 2.568 4.204 2 7.384l-.043.24h-6.47l.054-.337c.134-.846.077-1.543-.147-2.108-.222-.56-.617-1.01-1.202-1.35-.788-.456-1.865-.696-3.252-.696-1.538 0-2.816.31-3.847.913-1.008.598-1.61 1.42-1.83 2.472v.002c-.105.483-.083.88.041 1.206.123.322.357.6.723.83l.003.003.003.002c.226.15.622.327 1.21.528.582.198 1.334.413 2.257.644l4.791 1.213-.071.282-4.79-1.212c-1.855-.464-3.041-.868-3.558-1.213-.821-.516-1.12-1.298-.894-2.345.238-1.14.894-2.027 1.967-2.663 1.087-.636 2.419-.954 3.996-.954 1.417 0 2.55.245 3.398.735 1.2.7 1.71 1.856 1.53 3.465-.01.096-.023.193-.04.292h5.884c.557-3.114-.08-5.486-1.908-7.116C88.332 1.153 85.874.332 82.786.332c-3.697 0-6.685.867-8.964 2.603-2.279 1.736-3.697 3.916-4.253 6.54-.61 2.875-.073 4.988 1.61 6.34.993.808 2.941 1.557 5.843 2.246l2.962.695c1.736.398 2.968.855 3.697 1.372.742.53 1.007 1.279.795 2.246-.345 1.656-1.438 2.79-3.28 3.399-.967.318-2.173.477-3.617.477-2.412 0-3.989-.603-4.73-1.809-.369-.613-.527-1.517-.475-2.71.004-.095.01-.192.017-.291h-5.844c-.649 3.047-.066 5.446 1.75 7.195 1.815 1.736 4.63 2.603 8.447 2.603 3.737 0 6.817-.88 9.242-2.643 2.425-1.775 3.922-4.002 4.492-6.678.557-2.61.106-4.605-1.351-5.983-.941-.888-2.458-1.597-4.552-2.127l.071-.283c2.113.536 3.687 1.26 4.68 2.198 1.556 1.47 2.007 3.583 1.437 6.256-.586 2.753-2.128 5.04-4.605 6.852-2.486 1.807-5.632 2.7-9.415 2.7-3.853 0-6.756-.875-8.649-2.684v-.001c-1.906-1.836-2.497-4.347-1.832-7.466l.049-.231h6.392ZM99.086.894h6.862l7.037 19.678L117.173.894h6.301l-6.345 29.881h-6.563l-7.274-20.043-4.25 20.043h-6.301L99.086.895Zm4.132 8.78 7.553 20.81h6.122l6.221-29.298h-5.705l-4.352 20.453-7.315-20.453h-6.42l-6.22 29.297h5.704l4.412-20.81Zm42.6-1.345-.001-.001c-.972-1.695-2.593-2.557-4.934-2.557-2.344 0-4.398.861-6.176 2.6-1.763 1.737-3.001 4.224-3.695 7.485-.696 3.27-.503 5.726.502 7.423.998 1.684 2.634 2.54 4.976 2.54 2.344 0 4.385-.861 6.135-2.599h.001c1.763-1.738 3.001-4.224 3.696-7.485.682-3.257.49-5.708-.503-7.405l-.001-.001Zm.79 7.466c-.702 3.3-1.961 5.844-3.776 7.632-1.802 1.79-3.917 2.684-6.342 2.684s-4.166-.895-5.226-2.684c-1.06-1.788-1.24-4.333-.538-7.632.703-3.3 1.962-5.844 3.778-7.632 1.828-1.79 3.955-2.684 6.38-2.684s4.153.901 5.186 2.704c1.047 1.788 1.227 4.326.538 7.612Zm6.406.06c-1.137 5.312-3.505 9.405-7.117 12.25-2.751 2.33-6.259 3.485-10.5 3.485-4.231 0-7.298-1.151-9.112-3.527-2.45-2.893-3.061-7.027-1.926-12.33 1.15-5.414 3.516-9.509 7.119-12.25C134.229 1.154 137.736 0 141.976 0c4.229 0 7.296 1.15 9.11 3.525 2.468 2.79 3.076 6.928 1.928 12.33ZM150.862 3.71c-1.736-2.279-4.698-3.418-8.885-3.418-4.187 0-7.627 1.14-10.317 3.418-3.537 2.69-5.876 6.718-7.016 12.085-1.126 5.26-.502 9.289 1.87 12.085 1.736 2.279 4.697 3.418 8.884 3.418s7.626-1.14 10.316-3.418c3.551-2.796 5.89-6.825 7.016-12.085 1.14-5.367.517-9.395-1.868-12.085Zm13.94-2.816.303 17.062v.015l-.102 3.005 1.209-3.023.001-.002L173.184.895h6.949l-.101 17.07v.004l-.066 3.108 1.254-3.047.001-.003.002-.004 7.61-17.128h6.88l-14.758 29.881h-6.318l.101-17.43.112-4-1.616 4.112-.001.003-7.251 17.315h-6.151L157.703.895h7.099Zm10.387 6.792-.159 5.664-.099 17.133h5.843l14.47-29.297h-6.221L181.49 18.14l-1.849 4.492.1-4.67.099-16.776h-6.46l-6.897 16.875-1.828 4.571.159-4.67-.298-16.776h-6.5l2.087 29.297h5.685l7.175-17.133 2.226-5.664Z" clip-rule="evenodd"/></svg>